# xmcd
#
# Track frame offsets:
#	150
#	20428
#	44852
#	63720
#	86270
#	102360
#	123195
#	142540
#	158014
#	175007
#	189157
#	212047
#
# Disc length: 3068 seconds
#
# Revision: 1
# Processed by: cddbd v1.5.2PL0 Copyright (c) Steve Scherf et al.
# Submitted via: audiograbber 1.83.01
#
DISCID=960bfa0c
DTITLE=Dan Neal - When the big picture fades
DYEAR=2004
DGENRE=Blues
TTITLE0=Fire under my feet
TTITLE1=Don't Question my Faith
TTITLE2=When the big picture fades
TTITLE3=This time i'll be gone
TTITLE4=Gene pool
TTITLE5=My perfect life
TTITLE6=Painting outside the lines
TTITLE7=lower your standards
TTITLE8=17 Fridays til April
TTITLE9=KOI Pond
TTITLE10=Oregon
TTITLE11=Next Plane to Chicago
EXTD=
EXTT0=
EXTT1=
EXTT2=
EXTT3=
EXTT4=
EXTT5=
EXTT6=
EXTT7=
EXTT8=
EXTT9=
EXTT10=
EXTT11=
PLAYORDER=
